<svg width="82" height="27" viewBox="0 0 82 27" fill="none" xmlns="http://www.w3.org/2000/svg">
<path d="M19.5332 14.9087C19.5332 17.1987 19.1344 19.2096 18.3369 20.9414C17.5508 22.6732 16.4229 24.0062 14.9531 24.9404C13.4834 25.8747 11.7858 26.3418 9.86035 26.3418C6.95508 26.3418 4.60807 25.305 2.81934 23.2314C1.0306 21.1465 0.13623 18.3381 0.13623 14.8062V12.2427C0.13623 9.97542 0.534993 7.97021 1.33252 6.22705C2.14144 4.47249 3.28076 3.12809 4.75049 2.19385C6.22021 1.24821 7.91211 0.775391 9.82617 0.775391C11.7402 0.775391 13.4264 1.23682 14.8848 2.15967C16.3545 3.08252 17.4881 4.38704 18.2856 6.07324C19.0832 7.75944 19.499 9.71338 19.5332 11.9351V14.9087ZM17.4312 12.2085C17.4312 9.21208 16.7533 6.86507 15.3975 5.16748C14.0417 3.46989 12.1846 2.62109 9.82617 2.62109C7.51335 2.62109 5.66764 3.47559 4.28906 5.18457C2.92188 6.88216 2.23828 9.25765 2.23828 12.311V14.9087C2.23828 17.8595 2.92188 20.2008 4.28906 21.9326C5.65625 23.653 7.51335 24.5132 9.86035 24.5132C12.2415 24.5132 14.0986 23.6644 15.4316 21.9668C16.7646 20.2578 17.4312 17.8823 17.4312 14.8403V12.2085ZM34.1279 15.6436H26.8989V26H24.7798V1.11719H32.8633C35.5179 1.11719 37.5915 1.7609 39.084 3.04834C40.5765 4.33577 41.3228 6.1359 41.3228 8.44873C41.3228 10.0438 40.8556 11.4508 39.9214 12.6699C38.9871 13.889 37.7339 14.7321 36.1616 15.1992L42.3823 25.7778V26H40.1436L34.1279 15.6436ZM26.8989 13.8491H33.3418C35.1077 13.8491 36.5262 13.3478 37.5972 12.3452C38.6681 11.3426 39.2036 10.0438 39.2036 8.44873C39.2036 6.69417 38.6453 5.33268 37.5288 4.36426C36.4123 3.39583 34.8457 2.91162 32.8291 2.91162H26.8989V13.8491ZM54.6187 11.6445L61.6255 1.11719H64.1377L55.9004 13.3877L64.394 26H61.8647L54.6187 15.1309L47.3384 26H44.8433L53.354 13.3877L45.0996 1.11719H47.6118L54.6187 11.6445ZM74.7163 26.3418C73.144 26.3418 71.7199 25.9544 70.4438 25.1797C69.1792 24.4049 68.1937 23.3283 67.4873 21.9497C66.7809 20.5597 66.4277 19.0046 66.4277 17.2842V16.5493C66.4277 14.772 66.7695 13.1712 67.4531 11.7471C68.1481 10.3229 69.1108 9.20638 70.3413 8.39746C71.5718 7.57715 72.9048 7.16699 74.3403 7.16699C76.5848 7.16699 78.3621 7.93604 79.6724 9.47412C80.994 11.0008 81.6548 13.0915 81.6548 15.7461V16.8911H68.4614V17.2842C68.4614 19.3805 69.0596 21.1294 70.2559 22.5308C71.4635 23.9207 72.9788 24.6157 74.8018 24.6157C75.8955 24.6157 76.8582 24.4163 77.6899 24.0176C78.533 23.6188 79.2964 22.9808 79.98 22.1035L81.2617 23.0776C79.7578 25.2537 77.576 26.3418 74.7163 26.3418ZM74.3403 8.91016C72.8022 8.91016 71.5034 9.47412 70.4438 10.6021C69.3957 11.73 68.7576 13.2453 68.5298 15.1479H79.6211V14.9258C79.5641 13.1484 79.0571 11.7015 78.1001 10.585C77.1431 9.46842 75.8898 8.91016 74.3403 8.91016Z" fill="white"/>
</svg>
